<svg width="30" height="26" viewBox="0 0 30 26" fill="none" xmlns="http://www.w3.org/2000/svg">
<path fill-rule="evenodd" clip-rule="evenodd" d="M5 0C2.23859 0 0 2.23857 0 5V15C0 17.7614 2.23859 20 5 20C5.27875 20 5.48597 20.2579 5.42597 20.5301L4.62014 24.1863C4.41597 25.1127 5.49577 25.7762 6.22994 25.1755L12.2793 20.226C12.4579 20.0799 12.6817 20 12.9125 20H25C27.7614 20 30 17.7614 30 15V5C30 2.23857 27.7614 0 25 0H5ZM4 9C4 9.55229 4.44772 10 5 10H24C24.5523 10 25 9.55229 25 9C25 8.44771 24.5523 8 24 8H5C4.44772 8 4 8.44771 4 9ZM18 13C18 13.5523 17.5523 14 17 14H5C4.44772 14 4 13.5523 4 13C4 12.4477 4.44772 12 5 12H17C17.5523 12 18 12.4477 18 13Z" fill="#84858F"/>
</svg>
