<svg width="27" height="36" viewBox="0 0 27 36" fill="none" xmlns="http://www.w3.org/2000/svg">
<path fill-rule="evenodd" clip-rule="evenodd" d="M2.87079 0.202009C1.54269 -0.44032 0 0.527209 0 2.00249V23.534C0 24.301 0.438687 25.0005 1.12921 25.3345L6.60839 27.9845V33.3936C6.60839 34.8062 8.03309 35.7736 9.34608 35.2526L25.7377 28.748C26.4997 28.4456 27 27.7088 27 26.889V5.29832C27 3.88574 25.5753 2.91832 24.2623 3.43934L16.1887 6.64315L2.87079 0.202009ZM10.3475 8.9611L1.97681 5.02766L1.6993 5.98839L9.08858 9.46066L10.3475 8.9611ZM6.60839 15.4174L1.97681 13.241L1.6993 14.2017L6.60839 16.5085V15.4174ZM6.60839 22.7181L1.97681 20.5417L1.6993 21.5024L6.60839 23.8092V22.7181ZM24.9231 11.7935L10.5734 17.0802L10.2277 16.1419L24.5774 10.8552L24.9231 11.7935ZM10.5734 23.8774L24.9231 18.5907L24.5774 17.6524L10.2277 22.9391L10.5734 23.8774ZM24.9231 24.6327L10.5734 29.9194L10.2277 28.981L24.5774 23.6943L24.9231 24.6327Z" fill="#84858F"/>
</svg>
